<svg xmlns="http://www.w3.org/2000/svg" viewBox="0 0 100 100">
	<path d="M30.6 17.9C23.4 17.9 17.6 23.7 17.6 30.9L17.6 69.9C17.6 77.1 23.4 82.9 30.6 82.9L69.6 82.9C76.8 82.9 82.6 77.1 82.6 69.9L82.6 30.9C82.6 23.7 76.8 17.9 69.6 17.9L30.6 17.9z M30.6 19.9L69.6 19.9C75.7 19.9 80.6 24.8 80.6 30.9L80.6 69.9C80.6 76 75.7 80.9 69.6 80.9L30.6 80.9C24.5 80.9 19.6 76 19.6 69.9L19.6 30.9C19.6 24.8 24.5 19.9 30.6 19.9z M33.4 22.9C27.5 22.9 22.6 27.8 22.6 33.7L22.6 67.1C22.6 73 27.5 77.9 33.4 77.9L66.8 77.9C72.7 77.9 77.6 73 77.6 67.1L77.6 48.4C77.6 48.1 77.4 47.9 77.1 47.9C76.8 47.9 76.6 48.1 76.6 48.4L76.6 67.1C76.6 72.5 72.2 76.9 66.8 76.9L33.4 76.9C28 76.9 23.6 72.5 23.6 67.1L23.6 33.7C23.6 28.3 28 23.9 33.4 23.9L67.1 23.9C67.4 23.9 67.6 23.7 67.6 23.4C67.6 23.1 67.4 22.9 67.1 22.9L33.4 22.9z M50 32.3C47.8 32.3 46 32.5 44.5 33.1C43.1 33.6 41.9 34.3 41 35.1C40.1 36 39.4 36.9 39.1 37.9C38.7 38.9 38.5 39.8 38.5 40.7C38.5 41.9 38.9 42.8 39.5 43.6C40.2 44.4 41.1 44.8 42.2 44.8C43.6 44.8 44.6 44.4 45.2 43.6C45.8 42.9 46.1 42 46.1 41C46.1 40 45.8 39.2 45.2 38.6C44.8 38.2 44.4 37.9 43.9 37.8C44 37.7 44 37.6 44.1 37.6C44.3 37.3 44.7 37.1 45 36.9C45.5 36.7 46 36.5 46.6 36.4C47.2 36.2 48.1 36.2 49 36.2C50.5 36.2 51.6 36.6 52.4 37.4C53.1 38.2 53.5 39.3 53.5 40.5C53.5 41.4 53.4 42.2 53.1 42.9C52.8 43.6 52.4 44.3 52 45C51.5 45.6 51 46.3 50.5 46.9C49.9 47.6 49.4 48.3 48.9 49.1C48.4 49.9 48 50.7 47.7 51.7C47.4 52.6 47.2 53.7 47.2 55L47.2 55.4C47.2 55.6 47.2 55.8 47.2 55.9C47.3 56.2 47.5 56.3 47.7 56.3L50.6 56.3C50.8 56.3 51 56.2 51.1 55.9C51.2 54.7 51.5 53.7 52 52.9C52.5 52 53.2 51.3 53.9 50.6C54.7 49.9 55.5 49.2 56.3 48.7C57.2 48 58 47.3 58.7 46.6C59.5 45.8 60.1 44.9 60.6 43.9C61.1 42.9 61.4 41.7 61.4 40.3C61.4 38.7 61.1 37.4 60.5 36.4C59.8 35.3 59 34.5 57.9 33.9C56.9 33.3 55.7 32.8 54.3 32.6C53 32.4 51.6 32.3 50 32.3z M50 33.2C51.5 33.2 52.9 33.4 54.2 33.6C55.4 33.8 56.5 34.2 57.4 34.7C58.3 35.3 59.1 36 59.6 36.9C60.1 37.8 60.4 38.9 60.4 40.3C60.4 41.5 60.1 42.6 59.7 43.5C59.3 44.4 58.7 45.2 58 45.9C57.3 46.6 56.5 47.2 55.7 47.8C54.8 48.5 54 49.1 53.2 49.8C52.4 50.6 51.7 51.4 51.1 52.4C50.6 53.2 50.3 54.2 50.1 55.3L48.2 55.3L48.2 55C48.2 53.8 48.3 52.9 48.6 52C48.9 51.1 49.3 50.3 49.7 49.6C50.2 48.9 50.7 48.2 51.2 47.6C51.8 46.9 52.3 46.2 52.8 45.5C53.3 44.8 53.7 44.1 54 43.3C54.3 42.5 54.5 41.5 54.5 40.5C54.5 39 54 37.7 53.1 36.7C52.2 35.7 50.8 35.2 49 35.2C48 35.2 47.1 35.2 46.4 35.4C45.7 35.6 45.1 35.8 44.6 36C44.1 36.3 43.7 36.6 43.4 36.9C43.1 37.2 42.8 37.5 42.6 37.8C42.5 38 42.5 38.2 42.6 38.4C42.7 38.5 42.8 38.6 43 38.6C43.6 38.7 44.1 38.9 44.5 39.3C44.9 39.7 45.1 40.3 45.1 41C45.1 41.7 44.9 42.4 44.4 43C44 43.5 43.3 43.8 42.2 43.8C41.4 43.8 40.8 43.5 40.3 42.9C39.8 42.4 39.5 41.6 39.5 40.7C39.5 40 39.7 39.1 40 38.3C40.3 37.4 40.9 36.6 41.7 35.9C42.5 35.1 43.6 34.5 44.9 34C46.2 33.5 48 33.2 50 33.2z M77.1 36.9C76.8 36.9 76.6 37.1 76.6 37.4L76.6 39.4C76.6 39.7 76.8 39.9 77.1 39.9C77.4 39.9 77.6 39.7 77.6 39.4L77.6 37.4C77.6 37.1 77.4 36.9 77.1 36.9z M77.1 40.9C76.8 40.9 76.6 41.1 76.6 41.4L76.6 45.4C76.6 45.7 76.8 45.9 77.1 45.9C77.4 45.9 77.6 45.7 77.6 45.4L77.6 41.4C77.6 41.1 77.4 40.9 77.1 40.9z M49.3 59.6C48.3 59.6 47.3 60 46.5 60.8C45.7 61.6 45.3 62.5 45.3 63.6C45.3 64.7 45.7 65.7 46.5 66.5C47.3 67.3 48.3 67.7 49.3 67.7C50.5 67.7 51.4 67.3 52.2 66.5C53 65.7 53.4 64.7 53.4 63.6C53.4 62.5 53 61.6 52.2 60.8C51.4 60 50.5 59.6 49.3 59.6z M49.3 60.6C50.2 60.6 50.9 60.9 51.5 61.5C52.1 62.1 52.4 62.8 52.4 63.6C52.4 64.5 52.1 65.2 51.5 65.8C50.9 66.4 50.2 66.6 49.3 66.6C48.5 66.6 47.8 66.4 47.2 65.8C46.6 65.2 46.3 64.5 46.3 63.6C46.3 62.8 46.6 62.1 47.2 61.5C47.8 60.9 48.5 60.6 49.3 60.6z"></path>
</svg>
