<?xml version="1.0" encoding="UTF-8" ?>
<svg xmlns="http://www.w3.org/2000/svg" viewBox="0 0 48 48">
	<g transform="matrix(.9 0 0 .9-58.3.8)">
		<circle cx="82.3" cy="23.1" r="24" fill="#d33"/>
		<path d="m87.7 23.7l5.9-5.9c.3-.3.5-.8.5-1.3 0-.5-.1-.9-.5-1.3l-2.7-2.7c-.3-.3-.8-.5-1.3-.5-.5 0-.9.1-1.3.5l-5.9 5.9-5.9-5.9c-.3-.3-.8-.5-1.3-.5-.5 0-.9.1-1.3.5l-2.7 2.7c-.3.3-.5.8-.5 1.3 0 .5.1.9.5 1.3l5.9 5.9-5.9 5.9c-.3.3-.5.8-.5 1.3 0 .5.1.9.5 1.3l2.7 2.7c.3.3.8.5 1.3.5.5 0 .9-.1 1.3-.5l5.9-5.9 5.9 5.9c.3.3.8.5 1.3.5.5 0 .9-.1 1.3-.5l2.7-2.7c.3-.3.5-.8.5-1.3 0-.5-.1-.9-.5-1.3l-5.9-5.9" fill="#fff"/>
	</g>
</svg>