<?xml version="1.0" encoding="UTF-8" ?>
<svg viewBox="0 0 512 512" xmlns="http://www.w3.org/2000/svg">
	<g>
		<path d="m448.3 63.6-63.6-63.6-74.2 74.2 53 137.8z" fill="#F33"/>
		<path d="m448.3 63.6-116.6 116.6 106 21.2 74.2-74.2z" fill="#C34"/>
		<path d="m34.2 406.5-34.2 105.4 112.2-69.8z" fill="#33A"/>
		<path d="m0 512 105.4-34.2-14.4-56.8z" fill="#316"/>
		<path d="m188.3 366-127.2-42.4-26.8 82.8 35.6 35.6z" fill="#FEB"/>
		<path d="m69.8 442.1 35.6 35.6 82.8-26.8-21.2-106z" fill="#FD6"/>
		<path d="m124.7 387.2 63.6 63.6 249.3-249.3-63.6-63.6-166.1 81.3z" fill="#F92"/>
		<path d="m41.2 185.7h352.6v90h-352.6z" fill="#FB2" transform="matrix(.7 -.7 .7 .7 -100 221.4)"/>
	</g>
</svg>
